PathFileType	4	(x/y/z)	S04_P20_T17.trc
DataRate	CameraRate	NumFrames	NumMarkers	Units	OrigDataRate	OrigDataStartFrame	OrigNumFrames
240	240	8	51	mm	240	186	370
Frame#	Time	Sternum			R.Acromium			L.Acromium			Top.Head			R.ASIS			L.ASIS			R.PSIS			L.PSIS			R.Great.Tro			L.Great.Tro			R.Iliac.Crest			L.Iliac.Crest			V.Sacral			R.Thigh.Upper.Post			R.Thigh.Lower.Ant			R.Thigh.Lower.Post			R.Thigh.Upper.Ant			R.Knee.Lat			R.Knee.Med			R.Shank.Upper.Post			R.Shank.Lower.Ant			R.Shank.Lower.Post			R.Shank.Upper.Ant			R.Ankle.Lat			R.Ankle.Med			R.Heel.Upper			R.Heel.Med			R.Heel.Lat			R.Toe.Lat			R.Toe.Med			R.Toe.Tip			L.Thigh.Upper.Post			L.Thigh.Lower.Ant			L.Thigh.Lower.Post			L.Thigh.Upper.Ant			L.Knee.Lat			L.Knee.Med			L.Shank.Upper.Post			L.Shank.Lower.Ant			L.Shank.Lower.Post			L.Shank.Upper.Ant			L.Ankle.Lat			L.Ankle.Med			L.Heel.Upper			L.Heel.Med			L.Heel.Lat			L.Toe.Lat			L.Toe.Med			L.Toe.Tip			Cervical.Spine			Back			
		X1	Y1	Z1	X2	Y2	Z2	X3	Y3	Z3	X4	Y4	Z4	X5	Y5	Z5	X6	Y6	Z6	X7	Y7	Z7	X8	Y8	Z8	X9	Y9	Z9	X10	Y10	Z10	X11	Y11	Z11	X12	Y12	Z12	X13	Y13	Z13	X14	Y14	Z14	X15	Y15	Z15	X16	Y16	Z16	X17	Y17	Z17	X18	Y18	Z18	X19	Y19	Z19	X20	Y20	Z20	X21	Y21	Z21	X22	Y22	Z22	X23	Y23	Z23	X24	Y24	Z24	X25	Y25	Z25	X26	Y26	Z26	X27	Y27	Z27	X28	Y28	Z28	X29	Y29	Z29	X30	Y30	Z30	X31	Y31	Z31	X32	Y32	Z32	X33	Y33	Z33	X34	Y34	Z34	X35	Y35	Z35	X36	Y36	Z36	X37	Y37	Z37	X38	Y38	Z38	X39	Y39	Z39	X40	Y40	Z40	X41	Y41	Z41	X42	Y42	Z42	X43	Y43	Z43	X44	Y44	Z44	X45	Y45	Z45	X46	Y46	Z46	X47	Y47	Z47	X48	Y48	Z48	X49	Y49	Z49	X50	Y50	Z50	X51	Y51	Z51	

186	0.77083	-340.98	1285.1	290.17	-446.46	1512.8	478.72	-479.99	1506.5	130.7	-375.66	1835.7	292.97	-380.86	1005.6	432.52	-384.43	1024.8	183.19	-594.69	1035.8	329.03	-586.2	1039.5	249.66	-468.67	923.59	490.12	-486.07	933.39	110.23	-465.98	1094.5	472.43	-485.51	1105.1	136.59	-609.68	995.1	289.75	-468.19	664.58	474.13	-392.53	582.65	440.36	-467.45	574.27	460.12	-383.59	691.13	463.75	-442.82	506.37	448.79	-468.96	502.12	317.33	-530.87	284.01	443.59	-471.52	203.55	396.24	-536.71	214.95	426.1	-468.28	272.61	421.77	-532.72	101.91	402.43	-515.74	117	313.77	-602.03	73.532	348.17	-591.56	42.932	317.05	-594.56	40.161	382.24	-424.03	38.284	430.19	-388.38	42.876	309.85	-326.56	62.022	357.4	-404.6	699.93	114.86	-290.96	644.35	116.22	-360.35	622.28	126.07	-339.73	720.05	102.54	-299.02	549.91	129.66	-281.11	538.93	257.25	-433.84	411.28	146.01	-398.37	306.87	135.8	-453.67	336.27	151.32	-378.87	380.93	129.68	-468.96	168.7	155.23	-452.05	176.15	246.62	-547.94	164.56	209.68	-546.47	139.51	243.94	-555.81	137.77	182.5	-391.79	68.436	127.59	-346.8	67.526	237.58	-296.15	59.091	183.73	-507.6	1566.3	313.7	-599.6	1308.9	294.6
187	0.775	-335.71	1284.9	290.27	-440.97	1512.6	478.84	-474.68	1506.3	130.83	-370.19	1835.5	292.9	-376.01	1005.2	432.81	-379.04	1024.7	183.48	-589.57	1035.8	328.74	-580.94	1039.4	249.39	-464.22	923.41	490.1	-480.42	933.39	110.14	-460.91	1094.2	472.46	-479.99	1105	136.57	-604.47	995.03	289.4	-465.58	664.58	474.11	-390.43	582.09	440.54	-465.43	574.25	460.24	-380.77	690.52	463.85	-441.39	506.11	448.94	-467.29	502.01	317.36	-530.29	284.1	443.47	-471.09	203.42	396.27	-536.33	215.06	425.91	-467.68	272.46	421.84	-532.59	102.01	402.25	-515.63	117.02	313.6	-601.95	73.609	348.02	-591.51	42.943	316.98	-594.51	40.308	382.16	-424.02	38.238	430.22	-388.31	42.732	309.83	-326.49	61.773	357.44	-398.39	700.13	114.67	-284.6	644.85	116.65	-354	622.56	125.97	-333.49	720.42	102.78	-292.32	550.16	130.03	-274.9	539.41	257.5	-424.07	408.15	145.44	-385.98	304.63	135.86	-442.07	332.7	150.91	-368.28	379.09	129.63	-453.01	164.63	155.08	-436.6	172.59	246.53	-532.29	158.57	209.28	-530.14	133.52	243.5	-539.15	131.47	182.08	-373.13	66.32	127.81	-328.58	66.662	238.04	-277.5	59.505	184.36	-502.2	1566.1	313.86	-594.25	1308.7	294.77
188	0.77917	-330.43	1284.6	290.37	-435.48	1512.4	478.95	-469.35	1506.1	130.95	-364.72	1835.3	292.82	-371.14	1004.8	433.08	-373.65	1024.5	183.74	-584.43	1035.7	328.46	-575.67	1039.3	249.12	-459.75	923.19	490.09	-474.79	933.33	110.05	-455.84	1094	472.49	-474.47	1104.8	136.54	-599.24	994.91	289.06	-462.93	664.56	474.09	-388.3	581.52	440.7	-463.38	574.22	460.35	-377.92	689.91	463.93	-439.92	505.85	449.08	-465.6	501.89	317.39	-529.68	284.19	443.35	-470.65	203.3	396.3	-535.93	215.16	425.71	-467.05	272.31	421.9	-532.46	102.11	402.07	-515.5	117.03	313.42	-601.85	73.684	347.88	-591.44	42.961	316.92	-594.45	40.462	382.08	-424	38.194	430.24	-388.25	42.589	309.8	-326.42	61.516	357.47	-392.29	700.26	114.52	-278.39	645.21	117.05	-347.8	622.75	125.89	-327.37	720.69	103	-285.76	550.31	130.37	-268.8	539.78	257.74	-414.31	404.98	144.87	-373.59	302.42	135.88	-430.44	329.13	150.5	-357.73	377.25	129.54	-436.97	160.68	154.89	-421.06	169.1	246.41	-516.48	152.7	208.85	-513.64	127.66	243.04	-522.32	125.3	181.62	-354.43	64.371	127.99	-310.35	65.938	238.44	-258.88	60.075	184.93	-496.78	1565.9	314	-588.91	1308.5	294.92
189	0.78333	-325.15	1284.3	290.46	-430	1512.2	479.05	-464.01	1505.8	131.06	-359.24	1835	292.74	-366.24	1004.4	433.32	-368.25	1024.2	183.99	-579.28	1035.6	328.19	-570.4	1039.1	248.87	-455.25	922.95	490.07	-469.19	933.2	109.97	-450.77	1093.7	472.51	-468.96	1104.6	136.51	-594.01	994.75	288.73	-460.24	664.53	474.05	-386.13	580.95	440.84	-461.27	574.18	460.44	-375.04	689.29	463.99	-438.42	505.58	449.2	-463.87	501.77	317.4	-529.05	284.29	443.21	-470.2	203.17	396.31	-535.5	215.28	425.51	-466.4	272.16	421.95	-532.31	102.21	401.88	-515.34	117.04	313.24	-601.72	73.759	347.74	-591.34	42.987	316.86	-594.39	40.623	382.01	-423.98	38.151	430.25	-388.18	42.446	309.77	-326.35	61.251	357.51	-386.32	700.3	114.42	-272.33	645.46	117.44	-341.75	622.84	125.84	-321.37	720.85	103.22	-279.35	550.37	130.69	-262.81	540.05	257.95	-404.55	401.77	144.31	-361.22	300.27	135.86	-418.79	325.57	150.08	-347.22	375.42	129.43	-420.84	156.87	154.66	-405.42	165.72	246.24	-500.49	146.95	208.38	-496.98	121.93	242.53	-505.34	119.28	181.13	-335.71	62.601	128.12	-292.13	65.366	238.78	-240.3	60.808	185.45	-491.36	1565.7	314.13	-583.55	1308.2	295.06
190	0.7875	-319.86	1284	290.54	-424.51	1511.9	479.13	-458.65	1505.5	131.15	-353.76	1834.7	292.64	-361.32	1003.9	433.54	-362.85	1023.9	184.22	-574.12	1035.4	327.94	-565.12	1038.9	248.63	-450.72	922.69	490.05	-463.61	933.02	109.89	-445.7	1093.3	472.53	-463.45	1104.3	136.46	-588.77	994.55	288.42	-457.51	664.49	474.01	-383.91	580.38	440.96	-459.11	574.13	460.52	-372.13	688.67	464.02	-436.86	505.31	449.32	-462.12	501.64	317.41	-528.39	284.4	443.07	-469.73	203.05	396.32	-535.05	215.39	425.31	-465.73	272.01	421.99	-532.16	102.32	401.69	-515.15	117.04	313.05	-601.57	73.834	347.6	-591.22	43.021	316.82	-594.33	40.791	381.92	-423.96	38.108	430.26	-388.11	42.301	309.72	-326.27	60.976	357.55	-380.48	700.26	114.35	-266.41	645.58	117.8	-335.84	622.82	125.81	-315.51	720.89	103.43	-273.08	550.33	130.98	-256.92	540.2	258.14	-394.8	398.54	143.77	-348.87	298.17	135.8	-407.12	322.03	149.65	-336.75	373.61	129.3	-404.62	153.19	154.39	-389.7	162.45	246.02	-484.34	141.36	207.86	-480.17	116.37	242	-488.22	113.44	180.6	-316.98	61.023	128.21	-273.92	64.959	239.08	-221.76	61.714	185.91	-485.94	1565.4	314.25	-578.19	1307.9	295.18
191	0.79167	-314.55	1283.6	290.62	-419.03	1511.5	479.2	-453.27	1505.1	131.23	-348.28	1834.4	292.53	-356.36	1003.4	433.73	-357.45	1023.6	184.42	-568.94	1035.2	327.69	-559.83	1038.6	248.39	-446.14	922.39	490.03	-458.06	932.79	109.83	-440.64	1092.9	472.54	-457.95	1104	136.41	-583.52	994.32	288.12	-454.73	664.42	473.97	-381.65	579.81	441.06	-456.9	574.07	460.59	-369.17	688.05	464.02	-435.27	505.04	449.42	-460.33	501.51	317.41	-527.7	284.51	442.92	-469.24	202.93	396.33	-534.58	215.51	425.09	-465.04	271.87	422.03	-532	102.43	401.49	-514.92	117.03	312.86	-601.4	73.91	347.46	-591.09	43.064	316.77	-594.26	40.968	381.84	-423.93	38.066	430.26	-388.04	42.152	309.68	-326.18	60.691	357.59	-374.76	700.13	114.33	-260.65	645.57	118.13	-330.08	622.71	125.82	-309.78	720.82	103.63	-266.95	550.21	131.24	-251.13	540.26	258.31	-385.07	395.31	143.25	-336.55	296.15	135.7	-395.44	318.52	149.23	-326.35	371.83	129.14	-388.34	149.68	154.07	-373.91	159.32	245.77	-468.02	135.93	207.31	-463.23	110.98	241.43	-470.97	107.78	180.04	-298.25	59.649	128.26	-255.74	64.728	239.32	-203.28	62.8	186.33	-480.51	1565.1	314.35	-572.83	1307.6	295.28
192	0.79583	-309.24	1283.2	290.69	-413.55	1511.1	479.26	-447.89	1504.7	131.29	-342.79	1834	292.41	-351.38	1002.9	433.9	-352.04	1023.2	184.6	-563.75	1034.9	327.46	-554.53	1038.3	248.17	-441.53	922.07	490.01	-452.54	932.5	109.77	-435.59	1092.5	472.55	-452.45	1103.6	136.34	-578.26	994.05	287.84	-451.9	664.35	473.91	-379.34	579.23	441.14	-454.64	574	460.65	-366.18	687.42	464	-433.62	504.76	449.5	-458.51	501.38	317.4	-526.98	284.62	442.77	-468.73	202.81	396.32	-534.08	215.64	424.88	-464.32	271.72	422.06	-531.83	102.54	401.28	-514.65	117.01	312.65	-601.2	73.989	347.32	-590.95	43.114	316.73	-594.19	41.154	381.75	-423.91	38.026	430.26	-387.97	41.998	309.62	-326.09	60.396	357.63	-369.18	699.92	114.36	-255.05	645.44	118.44	-324.47	622.5	125.87	-304.18	720.64	103.82	-260.96	550	131.48	-245.45	540.21	258.47	-375.37	392.07	142.76	-324.28	294.21	135.56	-383.76	315.06	148.82	-316.01	370.08	128.95	-372	146.34	153.71	-358.07	156.33	245.47	-451.55	130.67	206.7	-446.17	105.79	240.82	-453.6	102.32	179.44	-279.53	58.489	128.26	-237.59	64.686	239.5	-184.87	64.076	186.69	-475.08	1564.7	314.43	-567.46	1307.2	295.37
193	0.8	-303.92	1282.7	290.74	-408.07	1510.7	479.31	-442.49	1504.3	131.33	-337.29	1833.6	292.28	-346.36	1002.4	434.03	-346.64	1022.7	184.75	-558.54	1034.7	327.24	-549.22	1038	247.96	-436.88	921.72	489.98	-447.04	932.16	109.71	-430.54	1092.1	472.55	-446.97	1103.2	136.27	-572.99	993.75	287.58	-449.02	664.26	473.85	-376.98	578.65	441.2	-452.31	573.92	460.7	-363.14	686.78	463.95	-431.92	504.48	449.57	-456.65	501.25	317.39	-526.22	284.74	442.61	-468.21	202.7	396.3	-533.55	215.77	424.66	-463.57	271.58	422.07	-531.65	102.66	401.07	-514.35	116.98	312.44	-600.99	74.073	347.17	-590.79	43.173	316.68	-594.12	41.349	381.66	-423.87	37.986	430.24	-387.89	41.837	309.57	-325.99	60.09	357.67	-363.72	699.63	114.43	-249.59	645.19	118.72	-319.01	622.19	125.95	-298.72	720.35	103.99	-255.12	549.71	131.7	-239.85	540.06	258.61	-365.68	388.84	142.32	-312.07	292.37	135.38	-372.09	311.66	148.42	-305.75	368.38	128.75	-355.62	143.19	153.32	-342.18	153.5	245.14	-434.95	125.61	206.05	-429	100.8	240.18	-436.14	97.082	178.81	-260.84	57.554	128.22	-219.48	64.843	239.63	-166.55	65.548	187	-469.65	1564.3	314.5	-562.09	1306.8	295.45
